{
  "accessors": [
    {
      "bufferView": 2,
      "componentType": 5126,
      "count": 6796,
      "max": [
        130.4500732421875,
        313.4219970703125,
        136.24537658691406
      ],
      "min": [
        -239.26708984375,
        37.412246704101562,
        -218.20436096191406
      ],
      "type": "VEC3"
    },
    {
      "bufferView": 2,
      "byteOffset": 81552,
      "componentType": 5126,
      "count": 6796,
      "max": [
        0.99965089559555054,
        0.99940937757492065,
        0.99993711709976196
      ],
      "min": [
        -0.99977737665176392,
        -0.99995648860931396,
        -0.99952781200408936
      ],
      "type": "VEC3"
    },
    {
      "bufferView": 3,
      "componentType": 5126,
      "count": 6796,
      "max": [
        0.99993473291397095,
        0.99982178211212158,
        0.99926632642745972,
        1
      ],
      "min": [
        -0.9999922513961792,
        -0.99926429986953735,
        -0.99997282028198242,
        -1
      ],
      "type": "VEC4"
    },
    {
      "bufferView": 1,
      "componentType": 5126,
      "count": 6796,
      "max": [
        0.99983775615692139,
        0.98052626848220825
      ],
      "min": [
        0.021188437938690186,
        0.015001654624938965
      ],
      "type": "VEC2"
    },
    {
      "bufferView": 0,
      "componentType": 5125,
      "count": 33624,
      "max": [
        6795
      ],
      "min": [
        0
      ],
      "type": "SCALAR"
    },
    {
      "bufferView": 2,
      "byteOffset": 163104,
      "componentType": 5126,
      "count": 1747,
      "max": [
        168.71910095214844,
        211.85577392578125,
        166.75228881835938
      ],
      "min": [
        -147.67851257324219,
        0,
        -156.323486328125
      ],
      "type": "VEC3"
    },
    {
      "bufferView": 2,
      "byteOffset": 184068,
      "componentType": 5126,
      "count": 1747,
      "max": [
        0.99848920106887817,
        0.99984586238861084,
        0.99902331829071045
      ],
      "min": [
        -0.99861204624176025,
        -1,
        -0.9956023097038269
      ],
      "type": "VEC3"
    },
    {
      "bufferView": 3,
      "byteOffset": 108736,
      "componentType": 5126,
      "count": 1747,
      "max": [
        0.99806004762649536,
        0.99996268749237061,
        0.99951773881912231,
        1
      ],
      "min": [
        -0.99990856647491455,
        -0.99790722131729126,
        -0.99956434965133667,
        -1
      ],
      "type": "VEC4"
    },
    {
      "bufferView": 1,
      "byteOffset": 54368,
      "componentType": 5126,
      "count": 1747,
      "max": [
        0.99517822265625,
        0.99960893392562866
      ],
      "min": [
        0.0028721373528242111,
        0.00018900632858276367
      ],
      "type": "VEC2"
    },
    {
      "bufferView": 0,
      "byteOffset": 134496,
      "componentType": 5125,
      "count": 7725,
      "max": [
        1746
      ],
      "min": [
        0
      ],
      "type": "SCALAR"
    }
  ],
  "asset": {
    "extras": {
      "author": "hatsaru (https://sketchfab.com/hatsaru)",
      "license": "CC-BY-NC-SA-4.0 (http://creativecommons.org/licenses/by-nc-sa/4.0/)",
      "source": "https://sketchfab.com/models/581a3e5afc244456a9fd7ec43f6c3343",
      "title": "Pokémon #715 - Noivern"
    },
    "generator": "Sketchfab-3.19.6",
    "version": "2.0"
  },
  "bufferViews": [
    {
      "buffer": 0,
      "byteLength": 165396,
      "byteOffset": 0,
      "name": "floatBufferViews",
      "target": 34963
    },
    {
      "buffer": 0,
      "byteLength": 68344,
      "byteOffset": 165396,
      "byteStride": 8,
      "name": "floatBufferViews",
      "target": 34962
    },
    {
      "buffer": 0,
      "byteLength": 205032,
      "byteOffset": 233740,
      "byteStride": 12,
      "name": "floatBufferViews",
      "target": 34962
    },
    {
      "buffer": 0,
      "byteLength": 136688,
      "byteOffset": 438772,
      "byteStride": 16,
      "name": "floatBufferViews",
      "target": 34962
    }
  ],
  "buffers": [
    {
      "byteLength": 575460,
      "uri": "scene.bin"
    }
  ],
  "images": [
    {
      "uri": "textures/Noivern_baseColor.png"
    },
    {
      "uri": "textures/Noivern_normal.png"
    },
    {
      "uri": "textures/Noivern_metallicRoughness.png"
    },
    {
      "uri": "textures/pedestal_baseColor.png"
    },
    {
      "uri": "textures/pedestal_normal.png"
    },
    {
      "uri": "textures/pedestal_metallicRoughness.png"
    }
  ],
  "materials": [
    {
      "doubleSided": false,
      "name": "Noivern",
      "normalTexture": {
        "index": 1,
        "scale": 1,
        "texCoord": 0
      },
      "occlusionTexture": {
        "index": 2,
        "strength": 1,
        "texCoord": 0
      },
      "pbrMetallicRoughness": {
        "baseColorFactor": [
          1,
          1,
          1,
          1
        ],
        "baseColorTexture": {
          "index": 0,
          "texCoord": 0
        },
        "metallicFactor": 0,
        "metallicRoughnessTexture": {
          "index": 2,
          "texCoord": 0
        },
        "roughnessFactor": 1
      }
    },
    {
      "doubleSided": true,
      "name": "pedestal",
      "normalTexture": {
        "index": 4,
        "scale": 1,
        "texCoord": 0
      },
      "occlusionTexture": {
        "index": 5,
        "strength": 1,
        "texCoord": 0
      },
      "pbrMetallicRoughness": {
        "baseColorFactor": [
          1,
          1,
          1,
          1
        ],
        "baseColorTexture": {
          "index": 3,
          "texCoord": 0
        },
        "metallicFactor": 1,
        "metallicRoughnessTexture": {
          "index": 5,
          "texCoord": 0
        },
        "roughnessFactor": 0.75
      }
    }
  ],
  "meshes": [
    {
      "name": "Badass_Noivern_Noivern_0",
      "primitives": [
        {
          "attributes": {
            "NORMAL": 1,
            "POSITION": 0,
            "TANGENT": 2,
            "TEXCOORD_0": 3
          },
          "indices": 4,
          "material": 0,
          "mode": 4
        }
      ]
    },
    {
      "name": "Badass_Noivern_pedestal_0",
      "primitives": [
        {
          "attributes": {
            "NORMAL": 6,
            "POSITION": 5,
            "TANGENT": 7,
            "TEXCOORD_0": 8
          },
          "indices": 9,
          "material": 1,
          "mode": 4
        }
      ]
    }
  ],
  "nodes": [
    {
      "children": [
        1
      ],
      "name": "RootNode (gltf orientation matrix)",
      "rotation": [
        -0.70710678118654746,
        -0,
        -0,
        0.70710678118654757
      ]
    },
    {
      "children": [
        2
      ],
      "name": "RootNode (model correction matrix)"
    },
    {
      "children": [
        3
      ],
      "matrix": [
        1,
        0,
        0,
        0,
        0,
        0,
        1,
        0,
        0,
        -1,
        0,
        0,
        0,
        0,
        0,
        1
      ],
      "name": "7686de1125794085a4c55a65ce7e4193.fbx"
    },
    {
      "children": [
        4
      ],
      "name": "RootNode"
    },
    {
      "children": [
        5,
        6
      ],
      "name": "Badass_Noivern"
    },
    {
      "mesh": 0,
      "name": "Badass_Noivern_Noivern_0"
    },
    {
      "mesh": 1,
      "name": "Badass_Noivern_pedestal_0"
    }
  ],
  "samplers": [
    {
      "magFilter": 9729,
      "minFilter": 9987,
      "wrapS": 10497,
      "wrapT": 10497
    }
  ],
  "scene": 0,
  "scenes": [
    {
      "name": "OSG_Scene",
      "nodes": [
        0
      ]
    }
  ],
  "textures": [
    {
      "sampler": 0,
      "source": 0
    },
    {
      "sampler": 0,
      "source": 1
    },
    {
      "sampler": 0,
      "source": 2
    },
    {
      "sampler": 0,
      "source": 3
    },
    {
      "sampler": 0,
      "source": 4
    },
    {
      "sampler": 0,
      "source": 5
    }
  ]
}

