{
  "accessors": [
    {
      "bufferView": 2,
      "componentType": 5126,
      "count": 12,
      "max": [
        1.9698899984359741,
        -4.480830192565918,
        13.571000099182129
      ],
      "min": [
        -1.9698899984359741,
        -6.3963098526000977,
        12.417460441589355
      ],
      "type": "VEC3"
    },
    {
      "bufferView": 2,
      "byteOffset": 144,
      "componentType": 5126,
      "count": 12,
      "max": [
        0.83434069156646729,
        -0.53753334283828735,
        0.24583472311496735
      ],
      "min": [
        -0.83434069156646729,
        -0.65454566478729248,
        -0.10562252998352051
      ],
      "type": "VEC3"
    },
    {
      "bufferView": 3,
      "componentType": 5126,
      "count": 12,
      "max": [
        0.65819847583770752,
        0.84083324670791626,
        0.0056330766528844833,
        1
      ],
      "min": [
        -0.65819847583770752,
        0.75284433364868164,
        -0.010978952050209045,
        -1
      ],
      "type": "VEC4"
    },
    {
      "bufferView": 1,
      "componentType": 5126,
      "count": 12,
      "max": [
        0.46094000339508057,
        0.94922000169754028
      ],
      "min": [
        0.046879999339580536,
        0.75391000509262085
      ],
      "type": "VEC2"
    },
    {
      "bufferView": 0,
      "componentType": 5125,
      "count": 24,
      "max": [
        11
      ],
      "min": [
        0
      ],
      "type": "SCALAR"
    },
    {
      "bufferView": 2,
      "byteOffset": 288,
      "componentType": 5126,
      "count": 1075,
      "max": [
        7.3640098571777344,
        7.1681399345397949,
        13.799320220947266
      ],
      "min": [
        -7.2793998718261719,
        -7.6019101142883301,
        -0.040759999305009842
      ],
      "type": "VEC3"
    },
    {
      "bufferView": 2,
      "byteOffset": 13188,
      "componentType": 5126,
      "count": 1075,
      "max": [
        0.99916726350784302,
        0.99685150384902954,
        0.99979215860366821
      ],
      "min": [
        -0.99958312511444092,
        -0.99971956014633179,
        -0.99988096952438354
      ],
      "type": "VEC3"
    },
    {
      "bufferView": 3,
      "byteOffset": 192,
      "componentType": 5126,
      "count": 1075,
      "max": [
        0.99998211860656738,
        0.99981927871704102,
        0.99838680028915405,
        1
      ],
      "min": [
        -0.99998211860656738,
        -0.99958539009094238,
        -0.99971956014633179,
        -1
      ],
      "type": "VEC4"
    },
    {
      "bufferView": 1,
      "byteOffset": 96,
      "componentType": 5126,
      "count": 1075,
      "max": [
        0.99365001916885376,
        0.99581998586654663
      ],
      "min": [
        0.0078999996185302734,
        0.0026499999221414328
      ],
      "type": "VEC2"
    },
    {
      "bufferView": 0,
      "byteOffset": 96,
      "componentType": 5125,
      "count": 4536,
      "max": [
        1074
      ],
      "min": [
        0
      ],
      "type": "SCALAR"
    }
  ],
  "asset": {
    "extras": {
      "author": "iqbalmulyawan (https://sketchfab.com/Iqbal.Mulyawan.Putera)",
      "license": "CC-BY-4.0 (http://creativecommons.org/licenses/by/4.0/)",
      "source": "https://sketchfab.com/models/086e0457cb2d4709a7f94006ca7e24d5",
      "title": "009 - Blastoise"
    },
    "generator": "Sketchfab-3.20.7",
    "version": "2.0"
  },
  "bufferViews": [
    {
      "buffer": 0,
      "byteLength": 18240,
      "byteOffset": 0,
      "name": "floatBufferViews",
      "target": 34963
    },
    {
      "buffer": 0,
      "byteLength": 8696,
      "byteOffset": 18240,
      "byteStride": 8,
      "name": "floatBufferViews",
      "target": 34962
    },
    {
      "buffer": 0,
      "byteLength": 26088,
      "byteOffset": 26936,
      "byteStride": 12,
      "name": "floatBufferViews",
      "target": 34962
    },
    {
      "buffer": 0,
      "byteLength": 17392,
      "byteOffset": 53024,
      "byteStride": 16,
      "name": "floatBufferViews",
      "target": 34962
    }
  ],
  "buffers": [
    {
      "byteLength": 70416,
      "uri": "scene.bin"
    }
  ],
  "images": [
    {
      "uri": "textures/mat2_baseColor.png"
    },
    {
      "uri": "textures/mat1_baseColor.png"
    }
  ],
  "materials": [
    {
      "doubleSided": true,
      "emissiveFactor": [
        0,
        0,
        0
      ],
      "name": "mat1",
      "pbrMetallicRoughness": {
        "baseColorFactor": [
          1,
          1,
          1,
          1
        ],
        "baseColorTexture": {
          "index": 1,
          "texCoord": 0
        },
        "metallicFactor": 0,
        "roughnessFactor": 0.59999999999999998
      }
    },
    {
      "doubleSided": true,
      "emissiveFactor": [
        0,
        0,
        0
      ],
      "name": "mat2",
      "pbrMetallicRoughness": {
        "baseColorFactor": [
          1,
          1,
          1,
          1
        ],
        "baseColorTexture": {
          "index": 0,
          "texCoord": 0
        },
        "metallicFactor": 0,
        "roughnessFactor": 0.59999999999999998
      }
    }
  ],
  "meshes": [
    {
      "name": "polygon0_mat2_0",
      "primitives": [
        {
          "attributes": {
            "NORMAL": 1,
            "POSITION": 0,
            "TANGENT": 2,
            "TEXCOORD_0": 3
          },
          "indices": 4,
          "material": 1,
          "mode": 4
        }
      ]
    },
    {
      "name": "polygon1_mat1_0",
      "primitives": [
        {
          "attributes": {
            "NORMAL": 6,
            "POSITION": 5,
            "TANGENT": 7,
            "TEXCOORD_0": 8
          },
          "indices": 9,
          "material": 0,
          "mode": 4
        }
      ]
    }
  ],
  "nodes": [
    {
      "children": [
        1
      ],
      "name": "RootNode (gltf orientation matrix)",
      "rotation": [
        -0.70710678118654746,
        -0,
        -0,
        0.70710678118654757
      ]
    },
    {
      "children": [
        2
      ],
      "name": "RootNode (model correction matrix)"
    },
    {
      "children": [
        3,
        5
      ],
      "name": "Root"
    },
    {
      "children": [
        4
      ],
      "name": "polygon0_mat2"
    },
    {
      "mesh": 0,
      "name": "polygon0_mat2_0"
    },
    {
      "children": [
        6
      ],
      "name": "polygon1_mat1"
    },
    {
      "mesh": 1,
      "name": "polygon1_mat1_0"
    }
  ],
  "samplers": [
    {
      "magFilter": 9729,
      "minFilter": 9987,
      "wrapS": 10497,
      "wrapT": 10497
    }
  ],
  "scene": 0,
  "scenes": [
    {
      "name": "OSG_Scene",
      "nodes": [
        0
      ]
    }
  ],
  "textures": [
    {
      "sampler": 0,
      "source": 0
    },
    {
      "sampler": 0,
      "source": 1
    }
  ]
}

