{
  "accessors": [
    {
      "bufferView": 2,
      "componentType": 5126,
      "count": 639,
      "max": [
        1.7655800580978394,
        1.0024399757385254,
        2.5346300601959229
      ],
      "min": [
        -1.7655800580978394,
        -0.82830297946929932,
        -0.050119999796152115
      ],
      "type": "VEC3"
    },
    {
      "bufferView": 2,
      "byteOffset": 7668,
      "componentType": 5126,
      "count": 639,
      "max": [
        0.99888348579406738,
        0.99846750497817993,
        0.99586057662963867
      ],
      "min": [
        -0.99888348579406738,
        -0.99626940488815308,
        -0.99979293346405029
      ],
      "type": "VEC3"
    },
    {
      "bufferView": 3,
      "componentType": 5126,
      "count": 639,
      "max": [
        0.99949139356613159,
        0.99981486797332764,
        0.99137872457504272,
        1
      ],
      "min": [
        -0.99997615814208984,
        -0.99874436855316162,
        -0.99832022190093994,
        -1
      ],
      "type": "VEC4"
    },
    {
      "bufferView": 1,
      "componentType": 5126,
      "count": 639,
      "max": [
        0.9749869704246521,
        0.99695497751235962
      ],
      "min": [
        0.032413698732852936,
        0.031093999743461609
      ],
      "type": "VEC2"
    },
    {
      "bufferView": 0,
      "componentType": 5125,
      "count": 2538,
      "max": [
        638
      ],
      "min": [
        0
      ],
      "type": "SCALAR"
    }
  ],
  "asset": {
    "extras": {
      "author": "fongoose (https://sketchfab.com/fongoose)",
      "license": "CC-BY-NC-4.0 (http://creativecommons.org/licenses/by-nc/4.0/)",
      "source": "https://sketchfab.com/models/a3b7b1a4ca67487d92a4843d47380d0e",
      "title": "Poliwhirl"
    },
    "generator": "Sketchfab-3.29.4-rc4",
    "version": "2.0"
  },
  "bufferViews": [
    {
      "buffer": 0,
      "byteLength": 10152,
      "byteOffset": 0,
      "name": "floatBufferViews",
      "target": 34963
    },
    {
      "buffer": 0,
      "byteLength": 5112,
      "byteOffset": 10152,
      "byteStride": 8,
      "name": "floatBufferViews",
      "target": 34962
    },
    {
      "buffer": 0,
      "byteLength": 15336,
      "byteOffset": 15264,
      "byteStride": 12,
      "name": "floatBufferViews",
      "target": 34962
    },
    {
      "buffer": 0,
      "byteLength": 10224,
      "byteOffset": 30600,
      "byteStride": 16,
      "name": "floatBufferViews",
      "target": 34962
    }
  ],
  "buffers": [
    {
      "byteLength": 40824,
      "uri": "scene.bin"
    }
  ],
  "extensionsUsed": [
    "KHR_materials_unlit"
  ],
  "images": [
    {
      "uri": "textures/PolyWhirl_baseColor.png"
    }
  ],
  "materials": [
    {
      "doubleSided": true,
      "extensions": {
        "KHR_materials_unlit": {}
      },
      "name": "PolyWhirl",
      "pbrMetallicRoughness": {
        "baseColorFactor": [
          1,
          1,
          1,
          1
        ],
        "baseColorTexture": {
          "index": 0,
          "texCoord": 0
        },
        "metallicFactor": 0,
        "roughnessFactor": 1
      }
    }
  ],
  "meshes": [
    {
      "primitives": [
        {
          "attributes": {
            "NORMAL": 1,
            "POSITION": 0,
            "TANGENT": 2,
            "TEXCOORD_0": 3
          },
          "indices": 4,
          "material": 0,
          "mode": 4
        }
      ]
    }
  ],
  "nodes": [
    {
      "children": [
        1
      ],
      "name": "RootNode (gltf orientation matrix)",
      "rotation": [
        -0.70710678118654746,
        -0,
        -0,
        0.70710678118654757
      ]
    },
    {
      "children": [
        2
      ],
      "name": "RootNode (model correction matrix)"
    },
    {
      "children": [
        3
      ],
      "name": "Polywhirl.obj.cleaner"
    },
    {
      "mesh": 0,
      "name": ""
    }
  ],
  "samplers": [
    {
      "magFilter": 9729,
      "minFilter": 9987,
      "wrapS": 10497,
      "wrapT": 10497
    }
  ],
  "scene": 0,
  "scenes": [
    {
      "name": "OSG_Scene",
      "nodes": [
        0
      ]
    }
  ],
  "textures": [
    {
      "sampler": 0,
      "source": 0
    }
  ]
}

