{
  "accessors": [
    {
      "bufferView": 2,
      "componentType": 5126,
      "count": 3257,
      "max": [
        60.846809387207031,
        54.144207000732422,
        180.11705017089844
      ],
      "min": [
        -60.846824645996094,
        -116.66301727294922,
        -16.151113510131836
      ],
      "type": "VEC3"
    },
    {
      "bufferView": 2,
      "byteOffset": 39084,
      "componentType": 5126,
      "count": 3257,
      "max": [
        0.99977600574493408,
        0.99972414970397949,
        0.99887233972549438
      ],
      "min": [
        -0.99977618455886841,
        -0.9978366494178772,
        -0.9983525276184082
      ],
      "type": "VEC3"
    },
    {
      "bufferView": 3,
      "componentType": 5126,
      "count": 3257,
      "max": [
        1,
        0.99966448545455933,
        0.99945372343063354,
        1
      ],
      "min": [
        -0.99999964237213135,
        -0.99966436624526978,
        -0.99945396184921265,
        -1
      ],
      "type": "VEC4"
    },
    {
      "bufferView": 1,
      "componentType": 5126,
      "count": 3257,
      "max": [
        1,
        0.9921879768371582
      ],
      "min": [
        0,
        0.0078130001202225685
      ],
      "type": "VEC2"
    },
    {
      "bufferView": 0,
      "componentType": 5125,
      "count": 13392,
      "max": [
        3256
      ],
      "min": [
        0
      ],
      "type": "SCALAR"
    },
    {
      "bufferView": 2,
      "byteOffset": 78168,
      "componentType": 5126,
      "count": 856,
      "max": [
        155.96598815917969,
        4.3541183471679688,
        185.60002136230469
      ],
      "min": [
        -155.96598815917969,
        -36.839801788330078,
        47.879001617431641
      ],
      "type": "VEC3"
    },
    {
      "bufferView": 2,
      "byteOffset": 88440,
      "componentType": 5126,
      "count": 856,
      "max": [
        0.99821394681930542,
        0.99775439500808716,
        0.9773445725440979
      ],
      "min": [
        -0.99821382761001587,
        -0.99909681081771851,
        -0.92615056037902832
      ],
      "type": "VEC3"
    },
    {
      "bufferView": 3,
      "byteOffset": 52112,
      "componentType": 5126,
      "count": 856,
      "max": [
        0.99646037817001343,
        0.99986457824707031,
        0.92901051044464111,
        1
      ],
      "min": [
        -0.99911850690841675,
        -0.99986439943313599,
        -0.92900049686431885,
        1
      ],
      "type": "VEC4"
    },
    {
      "bufferView": 1,
      "byteOffset": 26056,
      "componentType": 5126,
      "count": 856,
      "max": [
        0.9965900182723999,
        1.9841599464416504
      ],
      "min": [
        0.0034099998883903027,
        1.0151799917221069
      ],
      "type": "VEC2"
    },
    {
      "bufferView": 0,
      "byteOffset": 53568,
      "componentType": 5125,
      "count": 3684,
      "max": [
        855
      ],
      "min": [
        0
      ],
      "type": "SCALAR"
    },
    {
      "bufferView": 2,
      "byteOffset": 98712,
      "componentType": 5126,
      "count": 46,
      "max": [
        11.457200050354004,
        -53.833805084228516,
        139.65701293945312
      ],
      "min": [
        -11.457200050354004,
        -63.507709503173828,
        124.33102416992188
      ],
      "type": "VEC3"
    },
    {
      "bufferView": 2,
      "byteOffset": 99264,
      "componentType": 5126,
      "count": 46,
      "max": [
        0.80753225088119507,
        -0.57308977842330933,
        0.25394630432128906
      ],
      "min": [
        -0.80753225088119507,
        -0.79782062768936157,
        -0.21635372936725616
      ],
      "type": "VEC3"
    },
    {
      "bufferView": 3,
      "byteOffset": 65808,
      "componentType": 5126,
      "count": 46,
      "max": [
        0.80478799343109131,
        0.80433821678161621,
        0.25604119896888733,
        1
      ],
      "min": [
        0.56709456443786621,
        -0.80433827638626099,
        -0.25604116916656494,
        1
      ],
      "type": "VEC4"
    },
    {
      "bufferView": 1,
      "byteOffset": 32904,
      "componentType": 5126,
      "count": 46,
      "max": [
        0.48537999391555786,
        2.9916698932647705
      ],
      "min": [
        0.014615999534726143,
        2.7574501037597656
      ],
      "type": "VEC2"
    },
    {
      "bufferView": 0,
      "byteOffset": 68304,
      "componentType": 5125,
      "count": 180,
      "max": [
        45
      ],
      "min": [
        0
      ],
      "type": "SCALAR"
    },
    {
      "bufferView": 4,
      "componentType": 5126,
      "count": 1,
      "max": [
        1,
        0,
        0,
        0,
        0,
        1,
        0,
        0,
        0,
        0,
        1,
        0,
        0,
        0,
        0,
        1
      ],
      "min": [
        1,
        0,
        0,
        0,
        0,
        1,
        0,
        0,
        0,
        0,
        1,
        0,
        0,
        0,
        0,
        1
      ],
      "type": "MAT4"
    }
  ],
  "asset": {
    "extras": {
      "author": "KiwiGamer450 (https://sketchfab.com/kiwigamer450)",
      "license": "CC-BY-4.0 (http://creativecommons.org/licenses/by/4.0/)",
      "source": "https://sketchfab.com/3d-models/zapdos-cdbb9ba1ba1c42da95924d75e577161b",
      "title": "Zapdos"
    },
    "generator": "Sketchfab-6.22.0",
    "version": "2.0"
  },
  "bufferViews": [
    {
      "buffer": 0,
      "byteLength": 69024,
      "byteOffset": 0,
      "name": "floatBufferViews",
      "target": 34963
    },
    {
      "buffer": 0,
      "byteLength": 33272,
      "byteOffset": 69024,
      "byteStride": 8,
      "name": "floatBufferViews",
      "target": 34962
    },
    {
      "buffer": 0,
      "byteLength": 99816,
      "byteOffset": 102296,
      "byteStride": 12,
      "name": "floatBufferViews",
      "target": 34962
    },
    {
      "buffer": 0,
      "byteLength": 66544,
      "byteOffset": 202112,
      "byteStride": 16,
      "name": "floatBufferViews",
      "target": 34962
    },
    {
      "buffer": 0,
      "byteLength": 64,
      "byteOffset": 268656,
      "byteStride": 64,
      "name": "floatBufferViews"
    }
  ],
  "buffers": [
    {
      "byteLength": 268720,
      "uri": "scene.bin"
    }
  ],
  "images": [
    {
      "uri": "textures/Material_48_baseColor.png"
    },
    {
      "uri": "textures/Material_49_baseColor.png"
    },
    {
      "uri": "textures/Material_50_baseColor.png"
    }
  ],
  "materials": [
    {
      "doubleSided": true,
      "emissiveFactor": [
        0,
        0,
        0
      ],
      "name": "Material_48",
      "pbrMetallicRoughness": {
        "baseColorFactor": [
          1,
          1,
          1,
          1
        ],
        "baseColorTexture": {
          "index": 0,
          "texCoord": 0
        },
        "metallicFactor": 0,
        "roughnessFactor": 0.59999999999999998
      }
    },
    {
      "doubleSided": true,
      "emissiveFactor": [
        0,
        0,
        0
      ],
      "name": "Material_49",
      "pbrMetallicRoughness": {
        "baseColorFactor": [
          1,
          1,
          1,
          1
        ],
        "baseColorTexture": {
          "index": 1,
          "texCoord": 0
        },
        "metallicFactor": 0,
        "roughnessFactor": 0.59999999999999998
      }
    },
    {
      "doubleSided": true,
      "emissiveFactor": [
        0,
        0,
        0
      ],
      "name": "Material_50",
      "pbrMetallicRoughness": {
        "baseColorFactor": [
          1,
          1,
          1,
          1
        ],
        "baseColorTexture": {
          "index": 2,
          "texCoord": 0
        },
        "metallicFactor": 0,
        "roughnessFactor": 0.59999999999999998
      }
    }
  ],
  "meshes": [
    {
      "primitives": [
        {
          "attributes": {
            "NORMAL": 1,
            "POSITION": 0,
            "TANGENT": 2,
            "TEXCOORD_0": 3
          },
          "indices": 4,
          "material": 0,
          "mode": 4
        }
      ]
    },
    {
      "primitives": [
        {
          "attributes": {
            "NORMAL": 6,
            "POSITION": 5,
            "TANGENT": 7,
            "TEXCOORD_0": 8
          },
          "indices": 9,
          "material": 1,
          "mode": 4
        }
      ]
    },
    {
      "primitives": [
        {
          "attributes": {
            "NORMAL": 11,
            "POSITION": 10,
            "TANGENT": 12,
            "TEXCOORD_0": 13
          },
          "indices": 14,
          "material": 2,
          "mode": 4
        }
      ]
    }
  ],
  "nodes": [
    {
      "children": [
        1
      ],
      "name": "RootNode (gltf orientation matrix)",
      "rotation": [
        -0.70710678118654746,
        -0,
        -0,
        0.70710678118654757
      ]
    },
    {
      "children": [
        2
      ],
      "name": "RootNode (model correction matrix)"
    },
    {
      "children": [
        3
      ],
      "matrix": [
        1,
        0,
        0,
        0,
        0,
        0,
        1,
        0,
        0,
        -1,
        0,
        0,
        0,
        0,
        0,
        1
      ],
      "name": "Zapdos.FBX"
    },
    {
      "children": [
        4
      ],
      "name": "RootNode"
    },
    {
      "children": [
        5,
        6
      ],
      "name": ""
    },
    {
      "name": "_rootJoint"
    },
    {
      "children": [
        7,
        8,
        9
      ],
      "matrix": [
        0.99999999999999989,
        1.0587911840678754e-22,
        0,
        0,
        -6.4832261726707999e-39,
        6.123233995736766e-17,
        -1,
        0,
        -1.0587911840678754e-22,
        0.99999999999999989,
        6.1232339957367648e-17,
        0,
        5.4210108624275222e-20,
        2.8421709430404007e-14,
        7.1054273576010019e-15,
        1
      ],
      "name": ""
    },
    {
      "mesh": 0,
      "name": ""
    },
    {
      "mesh": 1,
      "name": ""
    },
    {
      "mesh": 2,
      "name": ""
    }
  ],
  "samplers": [
    {
      "magFilter": 9729,
      "minFilter": 9987,
      "wrapS": 10497,
      "wrapT": 10497
    }
  ],
  "scene": 0,
  "scenes": [
    {
      "name": "OSG_Scene",
      "nodes": [
        0
      ]
    }
  ],
  "skins": [
    {
      "inverseBindMatrices": 15,
      "joints": [
        5
      ],
      "skeleton": 5
    }
  ],
  "textures": [
    {
      "sampler": 0,
      "source": 0
    },
    {
      "sampler": 0,
      "source": 1
    },
    {
      "sampler": 0,
      "source": 2
    }
  ]
}

