{
  "accessors": [
    {
      "bufferView": 2,
      "componentType": 5126,
      "count": 120,
      "max": [
        392.79547119140625,
        -1755.769775390625,
        -171.20458984375
      ],
      "min": [
        -392.78952026367188,
        -2148.89453125,
        -564.38214111328125
      ],
      "type": "VEC3"
    },
    {
      "bufferView": 2,
      "byteOffset": 1440,
      "componentType": 5126,
      "count": 120,
      "max": [
        38.565582275390625,
        0.59254562854766846,
        -6.6720981597900391
      ],
      "min": [
        -38.565540313720703,
        -24.879499435424805,
        -24.374605178833008
      ],
      "type": "VEC3"
    },
    {
      "bufferView": 3,
      "componentType": 5126,
      "count": 120,
      "max": [
        0.61811774969100952,
        0.045501507818698883,
        0.98530673980712891,
        1
      ],
      "min": [
        0.17077136039733887,
        -0.045496132224798203,
        -0.98530679941177368,
        1
      ],
      "type": "VEC4"
    },
    {
      "bufferView": 1,
      "componentType": 5126,
      "count": 120,
      "max": [
        0.49248999357223511,
        1.9689099788665771
      ],
      "min": [
        0.0075059998780488968,
        1.7550599575042725
      ],
      "type": "VEC2"
    },
    {
      "bufferView": 0,
      "componentType": 5125,
      "count": 576,
      "max": [
        119
      ],
      "min": [
        0
      ],
      "type": "SCALAR"
    },
    {
      "bufferView": 2,
      "byteOffset": 2880,
      "componentType": 5126,
      "count": 2697,
      "max": [
        845.40692138671875,
        6.0272121429443359,
        862.00146484375
      ],
      "min": [
        -845.41082763671875,
        -2354.653076171875,
        -743.7403564453125
      ],
      "type": "VEC3"
    },
    {
      "bufferView": 2,
      "byteOffset": 35244,
      "componentType": 5126,
      "count": 2697,
      "max": [
        39.364933013916016,
        39.370079040527344,
        39.369396209716797
      ],
      "min": [
        -39.363277435302734,
        -39.357986450195312,
        -39.3690185546875
      ],
      "type": "VEC3"
    },
    {
      "bufferView": 3,
      "byteOffset": 1920,
      "componentType": 5126,
      "count": 2697,
      "max": [
        1,
        0.99997532367706299,
        0.99980407953262329,
        1
      ],
      "min": [
        -0.99999731779098511,
        -0.99997526407241821,
        -0.99990200996398926,
        -1
      ],
      "type": "VEC4"
    },
    {
      "bufferView": 1,
      "byteOffset": 960,
      "componentType": 5126,
      "count": 2697,
      "max": [
        0.99482202529907227,
        0.9921879768371582
      ],
      "min": [
        0.005177999846637249,
        0.005394000094383955
      ],
      "type": "VEC2"
    },
    {
      "bufferView": 0,
      "byteOffset": 2304,
      "componentType": 5125,
      "count": 12690,
      "max": [
        2696
      ],
      "min": [
        0
      ],
      "type": "SCALAR"
    },
    {
      "bufferView": 2,
      "byteOffset": 67608,
      "componentType": 5126,
      "count": 166,
      "max": [
        1002.6356811523438,
        -1378.240966796875,
        1085.161376953125
      ],
      "min": [
        355.11697387695312,
        -2526.154541015625,
        437.64605712890625
      ],
      "type": "VEC3"
    },
    {
      "bufferView": 2,
      "byteOffset": 69600,
      "componentType": 5126,
      "count": 166,
      "max": [
        39.071269989013672,
        39.369609832763672,
        39.100574493408203
      ],
      "min": [
        -39.087162017822266,
        -39.369316101074219,
        -39.056915283203125
      ],
      "type": "VEC3"
    },
    {
      "bufferView": 3,
      "byteOffset": 45072,
      "componentType": 5126,
      "count": 166,
      "max": [
        0.99962395429611206,
        0.19273698329925537,
        0.99961012601852417,
        1
      ],
      "min": [
        -0.99962186813354492,
        -0.19934242963790894,
        -0.99961578845977783,
        -1
      ],
      "type": "VEC4"
    },
    {
      "bufferView": 1,
      "byteOffset": 22536,
      "componentType": 5126,
      "count": 166,
      "max": [
        0.98580700159072876,
        1.8401299715042114
      ],
      "min": [
        0.01423100009560585,
        0.004236999899148941
      ],
      "type": "VEC2"
    },
    {
      "bufferView": 0,
      "byteOffset": 53064,
      "componentType": 5125,
      "count": 528,
      "max": [
        165
      ],
      "min": [
        0
      ],
      "type": "SCALAR"
    },
    {
      "bufferView": 2,
      "byteOffset": 71592,
      "componentType": 5126,
      "count": 107,
      "max": [
        1010.375,
        -1354.002197265625,
        1096.808837890625
      ],
      "min": [
        346.02548217773438,
        -2572.92919921875,
        425.5811767578125
      ],
      "type": "VEC3"
    },
    {
      "bufferView": 2,
      "byteOffset": 72876,
      "componentType": 5126,
      "count": 107,
      "max": [
        38.735397338867188,
        39.369609832763672,
        38.745868682861328
      ],
      "min": [
        -38.741424560546875,
        -39.369319915771484,
        -38.72918701171875
      ],
      "type": "VEC3"
    },
    {
      "bufferView": 3,
      "byteOffset": 47728,
      "componentType": 5126,
      "count": 107,
      "max": [
        0.98481345176696777,
        0.20976036787033081,
        0.98738944530487061,
        1
      ],
      "min": [
        -0.98480594158172607,
        -0.22006040811538696,
        -0.98479831218719482,
        -1
      ],
      "type": "VEC4"
    },
    {
      "bufferView": 1,
      "byteOffset": 23864,
      "componentType": 5126,
      "count": 107,
      "max": [
        0.99789994955062866,
        0.9805070161819458
      ],
      "min": [
        0.0019389999797567725,
        0.033208001405000687
      ],
      "type": "VEC2"
    },
    {
      "bufferView": 0,
      "byteOffset": 55176,
      "componentType": 5125,
      "count": 576,
      "max": [
        106
      ],
      "min": [
        0
      ],
      "type": "SCALAR"
    },
    {
      "bufferView": 4,
      "componentType": 5126,
      "count": 1,
      "max": [
        1,
        0,
        0,
        0,
        0,
        1,
        0,
        0,
        0,
        0,
        1,
        0,
        0,
        0,
        0,
        1
      ],
      "min": [
        1,
        0,
        0,
        0,
        0,
        1,
        0,
        0,
        0,
        0,
        1,
        0,
        0,
        0,
        0,
        1
      ],
      "type": "MAT4"
    }
  ],
  "asset": {
    "extras": {
      "author": "rick737 (https://sketchfab.com/rick737)",
      "license": "CC-BY-4.0 (http://creativecommons.org/licenses/by/4.0/)",
      "source": "https://sketchfab.com/models/9679f15164ba4df08f39f432f6e50f46",
      "title": "Charmander Posed - X/Y"
    },
    "generator": "Sketchfab-3.20.5",
    "version": "2.0"
  },
  "bufferViews": [
    {
      "buffer": 0,
      "byteLength": 57480,
      "byteOffset": 0,
      "name": "floatBufferViews",
      "target": 34963
    },
    {
      "buffer": 0,
      "byteLength": 24720,
      "byteOffset": 57480,
      "byteStride": 8,
      "name": "floatBufferViews",
      "target": 34962
    },
    {
      "buffer": 0,
      "byteLength": 74160,
      "byteOffset": 82200,
      "byteStride": 12,
      "name": "floatBufferViews",
      "target": 34962
    },
    {
      "buffer": 0,
      "byteLength": 49440,
      "byteOffset": 156360,
      "byteStride": 16,
      "name": "floatBufferViews",
      "target": 34962
    },
    {
      "buffer": 0,
      "byteLength": 64,
      "byteOffset": 205800,
      "byteStride": 64,
      "name": "floatBufferViews"
    }
  ],
  "buffers": [
    {
      "byteLength": 205864,
      "uri": "scene.bin"
    }
  ],
  "images": [
    {
      "uri": "textures/Material__36_baseColor.png"
    },
    {
      "uri": "textures/Material__34_baseColor.png"
    },
    {
      "uri": "textures/Material__35_baseColor.png"
    },
    {
      "uri": "textures/Material__37_baseColor.png"
    }
  ],
  "materials": [
    {
      "doubleSided": true,
      "emissiveFactor": [
        0,
        0,
        0
      ],
      "name": "Material__34",
      "pbrMetallicRoughness": {
        "baseColorFactor": [
          1,
          1,
          1,
          1
        ],
        "baseColorTexture": {
          "index": 1,
          "texCoord": 0
        },
        "metallicFactor": 0,
        "roughnessFactor": 0.59999999999999998
      }
    },
    {
      "doubleSided": true,
      "emissiveFactor": [
        0,
        0,
        0
      ],
      "name": "Material__35",
      "pbrMetallicRoughness": {
        "baseColorFactor": [
          1,
          1,
          1,
          1
        ],
        "baseColorTexture": {
          "index": 2,
          "texCoord": 0
        },
        "metallicFactor": 0,
        "roughnessFactor": 0.59999999999999998
      }
    },
    {
      "doubleSided": true,
      "emissiveFactor": [
        0,
        0,
        0
      ],
      "name": "Material__36",
      "pbrMetallicRoughness": {
        "baseColorFactor": [
          1,
          1,
          1,
          1
        ],
        "baseColorTexture": {
          "index": 0,
          "texCoord": 0
        },
        "metallicFactor": 0,
        "roughnessFactor": 0.59999999999999998
      }
    },
    {
      "doubleSided": true,
      "emissiveFactor": [
        0,
        0,
        0
      ],
      "name": "Material__37",
      "pbrMetallicRoughness": {
        "baseColorFactor": [
          1,
          1,
          1,
          1
        ],
        "baseColorTexture": {
          "index": 3,
          "texCoord": 0
        },
        "metallicFactor": 0,
        "roughnessFactor": 0.59999999999999998
      }
    }
  ],
  "meshes": [
    {
      "primitives": [
        {
          "attributes": {
            "NORMAL": 1,
            "POSITION": 0,
            "TANGENT": 2,
            "TEXCOORD_0": 3
          },
          "indices": 4,
          "material": 0,
          "mode": 4
        }
      ]
    },
    {
      "primitives": [
        {
          "attributes": {
            "NORMAL": 6,
            "POSITION": 5,
            "TANGENT": 7,
            "TEXCOORD_0": 8
          },
          "indices": 9,
          "material": 1,
          "mode": 4
        }
      ]
    },
    {
      "primitives": [
        {
          "attributes": {
            "NORMAL": 11,
            "POSITION": 10,
            "TANGENT": 12,
            "TEXCOORD_0": 13
          },
          "indices": 14,
          "material": 2,
          "mode": 4
        }
      ]
    },
    {
      "primitives": [
        {
          "attributes": {
            "NORMAL": 16,
            "POSITION": 15,
            "TANGENT": 17,
            "TEXCOORD_0": 18
          },
          "indices": 19,
          "material": 3,
          "mode": 4
        }
      ]
    }
  ],
  "nodes": [
    {
      "children": [
        1
      ],
      "name": "RootNode (gltf orientation matrix)",
      "rotation": [
        -0.70710678118654746,
        -0,
        -0,
        0.70710678118654757
      ]
    },
    {
      "children": [
        2
      ],
      "name": "RootNode (model correction matrix)"
    },
    {
      "children": [
        3
      ],
      "matrix": [
        1,
        0,
        0,
        0,
        0,
        0,
        1,
        0,
        0,
        -1,
        0,
        0,
        0,
        0,
        0,
        1
      ],
      "name": "Charmander.FBX"
    },
    {
      "children": [
        4,
        12,
        15
      ],
      "name": "RootNode"
    },
    {
      "children": [
        5
      ],
      "matrix": [
        0.025399999693036079,
        0,
        0,
        0,
        0,
        -4.1381852065417478e-09,
        -0.025399999693035743,
        0,
        0,
        0.025399999693035743,
        -4.1381852065417478e-09,
        0,
        0,
        0,
        0,
        1
      ],
      "name": "Armature"
    },
    {
      "children": [
        6,
        7
      ],
      "name": ""
    },
    {
      "name": "_rootJoint"
    },
    {
      "children": [
        8,
        9,
        10,
        11
      ],
      "matrix": [
        0.025399999693036079,
        0,
        0,
        0,
        0,
        -3.7924228862431967e-17,
        -0.025399999693036211,
        0,
        0,
        0.025399999693036211,
        -3.7924228862431967e-17,
        0,
        0,
        0,
        0,
        1
      ],
      "name": ""
    },
    {
      "mesh": 0,
      "name": ""
    },
    {
      "mesh": 1,
      "name": ""
    },
    {
      "mesh": 2,
      "name": ""
    },
    {
      "mesh": 3,
      "name": ""
    },
    {
      "children": [
        13
      ],
      "matrix": [
        -0.29086456714671732,
        -0.055189317573633323,
        -0.9551710965031468,
        0,
        -0.56639277599352056,
        -0.794672338632467,
        0.21839125414476446,
        0,
        -0.77110100525499836,
        0.60452435856755926,
        0.19988321884202093,
        0,
        4.0762453079223633,
        5.9038619995117188,
        -1.0054539442062378,
        1
      ],
      "name": "Lamp"
    },
    {
      "children": [
        14
      ],
      "matrix": [
        1,
        0,
        0,
        0,
        0,
        2.2204460492503131e-16,
        1,
        0,
        0,
        -1,
        2.2204460492503131e-16,
        0,
        0,
        0,
        0,
        1
      ],
      "name": ""
    },
    {
      "name": ""
    },
    {
      "children": [
        16
      ],
      "matrix": [
        0.65486180951010686,
        0.44524536775376433,
        0.6106656801712077,
        0,
        -0.31737009823248541,
        0.89534321079748203,
        -0.31246861669209625,
        0,
        -0.68588061584057025,
        0.01081673748369022,
        0.72763368462734679,
        0,
        7.4811315536499023,
        5.3436651229858398,
        6.5076398849487305,
        1
      ],
      "name": "Camera"
    },
    {
      "name": ""
    }
  ],
  "samplers": [
    {
      "magFilter": 9729,
      "minFilter": 9987,
      "wrapS": 10497,
      "wrapT": 10497
    }
  ],
  "scene": 0,
  "scenes": [
    {
      "name": "OSG_Scene",
      "nodes": [
        0
      ]
    }
  ],
  "skins": [
    {
      "inverseBindMatrices": 20,
      "joints": [
        6
      ],
      "skeleton": 6
    }
  ],
  "textures": [
    {
      "sampler": 0,
      "source": 0
    },
    {
      "sampler": 0,
      "source": 1
    },
    {
      "sampler": 0,
      "source": 2
    },
    {
      "sampler": 0,
      "source": 3
    }
  ]
}

